<?xml version="1.0" encoding="utf-8"?>
<!-- Generator: Adobe Illustrator 24.1.2, SVG Export Plug-In . SVG Version: 6.00 Build 0)  -->
<svg version="1.1" id="Capa_1" xmlns="http://www.w3.org/2000/svg" xmlns:xlink="http://www.w3.org/1999/xlink" x="0px" y="0px"
	 viewBox="0 0 512 512" style="enable-background:new 0 0 512 512;" xml:space="preserve">
<style type="text/css">
	.st0{fill:#b6a57b;}
</style>
<g>
	<g>
		<g>
			<path class="st0" d="M170.7,149.3c-23.5,0-42.7,19.1-42.7,42.7s19.1,42.7,42.7,42.7s42.7-19.1,42.7-42.7
				C213.3,168.5,194.2,149.3,170.7,149.3z"/>
			<path class="st0" d="M448,42.7H64c-35.3,0-64,28.7-64,64v298.7c0,35.3,28.7,64,64,64h384c35.3,0,64-28.7,64-64V106.7
				C512,71.4,483.3,42.7,448,42.7z M320,128h64c11.8,0,21.3,9.5,21.3,21.3s-9.5,21.3-21.3,21.3h-64c-11.8,0-21.3-9.5-21.3-21.3
				S308.2,128,320,128z M64,320c0-28.6,17.9-53.9,45-69.4c-14.6-15.3-23.6-35.9-23.6-58.6c0-47.1,38.3-85.3,85.3-85.3
				S256,144.9,256,192c0,22.8-9.1,43.3-23.6,58.6c27.1,15.5,45,40.7,45,69.4c0,11.8-9.5,21.3-21.3,21.3H85.3
				C73.5,341.3,64,331.8,64,320z M362.7,405.3H149.3c-11.8,0-21.3-9.5-21.3-21.3s9.5-21.3,21.3-21.3h213.3
				c11.8,0,21.3,9.5,21.3,21.3C384,395.8,374.5,405.3,362.7,405.3z M426.7,298.7H320c-11.8,0-21.3-9.5-21.3-21.3S308.2,256,320,256
				h106.7c11.8,0,21.3,9.5,21.3,21.3C448,289.1,438.5,298.7,426.7,298.7z M426.7,234.7H320c-11.8,0-21.3-9.5-21.3-21.3
				S308.2,192,320,192h106.7c11.8,0,21.3,9.5,21.3,21.3S438.5,234.7,426.7,234.7z"/>
		</g>
	</g>
</g>
</svg>
