<?xml version="1.0" encoding="utf-8"?>
<!-- Generator: Adobe Illustrator 24.1.2, SVG Export Plug-In . SVG Version: 6.00 Build 0)  -->
<svg version="1.1" id="Capa_1" xmlns="http://www.w3.org/2000/svg" xmlns:xlink="http://www.w3.org/1999/xlink" x="0px" y="0px"
	 viewBox="0 0 512 512" style="enable-background:new 0 0 512 512;" xml:space="preserve">
<style type="text/css">
	.st0{fill:#F46C11;}
</style>
<g>
	<g>
		<g>
			<polygon class="st0" points="320,12.5 320,128 435.5,128 			"/>
			<path class="st0" d="M320,298.7c-11.8,0-21.3,9.6-21.3,21.3s9.6,21.3,21.3,21.3s21.3-9.6,21.3-21.3S331.8,298.7,320,298.7z"/>
			<path class="st0" d="M167.9,374c-0.4,0.2-0.9,0.5-1.3,0.7C167.4,374.8,167.8,374.6,167.9,374z"/>
			<path class="st0" d="M298.7,170.7c-11.8,0-21.3-9.5-21.3-21.3V0h-192C73.5,0,64,9.6,64,21.3v469.3c0,11.8,9.5,21.3,21.3,21.3
				h341.3c11.8,0,21.3-9.5,21.3-21.3v-320L298.7,170.7L298.7,170.7z M298.7,192h42.7c11.8,0,21.3,9.6,21.3,21.3
				c0,11.8-9.5,21.3-21.3,21.3h-42.7c-11.8,0-21.3-9.5-21.3-21.3C277.3,201.6,286.9,192,298.7,192z M151.6,277.3h61.8
				c11.8,0,21.3,9.6,21.3,21.3c0,11.8-9.5,21.3-21.3,21.3h-61.8c-11.8,0-21.3-9.5-21.3-21.3C130.2,286.9,139.8,277.3,151.6,277.3z
				 M135.4,213.3c0-11.8,9.5-21.3,21.3-21.3h56.6c11.8,0,21.3,9.6,21.3,21.3c0,11.8-9.5,21.3-21.3,21.3h-56.6
				C144.9,234.7,135.4,225.1,135.4,213.3z M212,411.6c-0.3-0.1-0.4-0.1-0.9-0.3c-1.9-0.6-3.9-1.1-5.8-1.5c-2.2-0.5-4.5-0.9-6.8-1.2
				c-1.4-0.1-2.9-0.1-4.4-0.2c-0.4,1-8,3.9-9.7,4.7c-20.2,9.1-43.1,1-53.5-18.4c-13-24.2,23.9-45.7,36.8-21.5
				c0.1,0.3,0.1,0.5,0.1,0.7c1.8-1,3.5-2,5.3-3c3.3-1.7,6.8-3.4,10.3-4.3c6.8-1.7,14.1-0.8,20.9,0.1c14.7,1.9,30.4,4.8,39.3,17.9
				C257.5,405.3,228.9,424.5,212,411.6z M234.7,149.3h-78c-11.8,0-21.3-9.5-21.3-21.3c0-11.8,9.5-21.3,21.3-21.3h78
				c11.8,0,21.3,9.6,21.3,21.3C256,139.8,246.5,149.3,234.7,149.3z M362.7,367.4v44c0,13.5-16.3,20.3-25.9,10.7L320,405.3
				l-16.8,16.8c-9.5,9.6-25.9,2.8-25.9-10.7v-44c-13-11.7-21.3-28.5-21.3-47.4c0-35.3,28.7-64,64-64s64,28.7,64,64
				C384,338.8,375.7,355.6,362.7,367.4z"/>
		</g>
	</g>
</g>
</svg>
