<?xml version="1.0" encoding="utf-8"?>
<!-- Generator: Adobe Illustrator 24.1.2, SVG Export Plug-In . SVG Version: 6.00 Build 0)  -->
<svg version="1.1" id="Capa_1" xmlns="http://www.w3.org/2000/svg" xmlns:xlink="http://www.w3.org/1999/xlink" x="0px" y="0px"
	 viewBox="0 0 512 512" style="enable-background:new 0 0 512 512;" xml:space="preserve">
<style type="text/css">
	.st0{fill:#1c1259}
</style>
<g transform="translate(-1)">
	<g>
		<g>
			<path class="st0" d="M257,149.3c-11.8,0-21.3,9.6-21.3,21.3c0,11.8,9.6,21.3,21.3,21.3c11.7,0,21.3-9.6,21.3-21.3
				C278.3,158.9,268.8,149.3,257,149.3z"/>
			<path class="st0" d="M365.5,38.9C326,6.3,274-6.6,223,3.2c-68.9,13.4-122.9,69-134.3,138.5c-6.8,41,0.7,81.2,21.7,116.3l8.7,14.5
				C147,319,175.8,367,198.8,416.4l38.8,83.2c3.5,7.5,11,12.3,19.3,12.3s15.8-4.8,19.3-12.3l35-74.9c23.3-50,52.1-98.7,80-145.8
				l13-22c15.3-26.1,23.4-55.9,23.4-86.3C427.7,119.5,405,71.5,365.5,38.9z M257,234.6c-35.3,0-64-28.7-64-64s28.7-64,64-64
				s64,28.7,64,64S292.3,234.6,257,234.6z"/>
		</g>
	</g>
</g>
</svg>
