<?xml version="1.0" encoding="utf-8"?>
<!-- Generator: Adobe Illustrator 24.1.2, SVG Export Plug-In . SVG Version: 6.00 Build 0)  -->
<svg version="1.1" id="Layer_1" xmlns="http://www.w3.org/2000/svg" xmlns:xlink="http://www.w3.org/1999/xlink" x="0px" y="0px"
	 viewBox="0 0 512 512" style="enable-background:new 0 0 512 512;" xml:space="preserve">
<style type="text/css">
	.st0{fill:#006367;}
</style>
<g>
	<g>
		<path class="st0" d="M508.6,116L363.2,261.5l141.9,142c4.3-7.4,6.9-15.9,6.9-25V133.6C512,127.4,510.7,121.5,508.6,116z"/>
	</g>
</g>
<g>
	<g>
		<path class="st0" d="M461.9,83.5H50.1c-8.3,0-16.1,2.2-23,5.8L245.8,308c6.3,6.3,17.4,6.3,23.6,0L487,90.5
			C479.6,86.1,471.1,83.5,461.9,83.5z"/>
	</g>
</g>
<g>
	<g>
		<path class="st0" d="M4.2,113.6c-2.7,6.1-4.2,12.9-4.2,20v244.9c0,9,2.6,17.3,6.7,24.6l143.4-143.5L4.2,113.6z"/>
	</g>
</g>
<g>
	<g>
		<path class="st0" d="M339.5,285.2l-46.4,46.5c-19.5,19.3-51.1,19.6-70.9,0l-48.3-48.4L32,425c5.6,2.2,11.7,3.5,18.1,3.5h411.8
			c6.2,0,12.1-1.3,17.7-3.4L339.5,285.2z"/>
	</g>
</g>
</svg>
