<?xml version="1.0" encoding="utf-8"?>
<!-- Generator: Adobe Illustrator 24.1.2, SVG Export Plug-In . SVG Version: 6.00 Build 0)  -->
<svg version="1.1" id="Capa_1" xmlns="http://www.w3.org/2000/svg" xmlns:xlink="http://www.w3.org/1999/xlink" x="0px" y="0px"
	 viewBox="0 0 512 512" style="enable-background:new 0 0 512 512;" xml:space="preserve">
<style type="text/css">
	.st0{fill:#ffffff}
</style>
<g>
	<g>
		<g>
			<path class="st0" d="M184.1,256.8c21.1-14.4,45.9-22.1,71.9-22.1c26,0,50.8,7.8,71.9,22.1l47.3-60.8L322,156.2l-50.9,50.9
				c-4.2,4.2-9.6,6.3-15.1,6.3c-5.5,0-10.9-2.1-15.1-6.3L190,156.2L136.8,196L184.1,256.8z"/>
			<path class="st0" d="M256,349.2l45.7-58.7c-27.1-17.2-64.2-17.2-91.3,0L256,349.2z"/>
			<path class="st0" d="M170.7,14.9c-14.9,5.3-29.2,11.9-42.7,19.7v114.7l42.7-32V14.9z"/>
			<path class="st0" d="M426.7,65.7V192c0,1.7-0.3,3.3-0.7,5c0,0.2,0,0.5-0.1,0.7c-0.7,2.4-1.9,4.6-3.3,6.6
				c-0.2,0.3-0.2,0.6-0.4,0.8l-74,95.1c0,0,0,0,0,0l-75.3,96.8c-4.1,5.2-10.3,8.2-16.9,8.2c-6.6,0-12.8-3.1-16.9-8.2l-75.3-96.8
				c0,0,0,0,0,0l-74-95.1c-0.2-0.2-0.2-0.5-0.4-0.8c-1.5-2-2.6-4.2-3.3-6.6c-0.1-0.2,0-0.5-0.1-0.7c-0.4-1.6-0.7-3.3-0.7-5V65.7
				C33.1,112.6,0,180.4,0,256c0,141.2,114.8,256,256,256s256-114.8,256-256C512,180.4,478.9,112.6,426.7,65.7z"/>
			<path class="st0" d="M384,34.6c-13.5-7.9-27.8-14.4-42.7-19.7v102.4l42.7,32V34.6z"/>
			<path class="st0" d="M298.7,119.2V3.9C284.8,1.5,270.6,0,256,0c-14.6,0-28.8,1.5-42.7,3.9v115.3l42.7,42.7L298.7,119.2z"/>
		</g>
	</g>
</g>
</svg>
