<?xml version="1.0" encoding="utf-8"?>
<!-- Generator: Adobe Illustrator 24.1.2, SVG Export Plug-In . SVG Version: 6.00 Build 0)  -->
<svg version="1.1" id="Capa_1" xmlns="http://www.w3.org/2000/svg" xmlns:xlink="http://www.w3.org/1999/xlink" x="0px" y="0px"
	 viewBox="0 0 512 512" style="enable-background:new 0 0 512 512;" xml:space="preserve">
<style type="text/css">
	.st0{fill:#006367;}
</style>
<g>
	<g>
		<g>
			<path class="st0" d="M458.7,128H160c-11.8,0-21.3,9.5-21.3,21.3V256c0,11.8,9.6,21.3,21.3,21.3h21.3v21.3
				c0,7.9,4.3,15.1,11.3,18.8c3.2,1.7,6.6,2.5,10.1,2.5c4.1,0,8.3-1.2,11.8-3.6l58.6-39.1h185.5c11.8,0,21.3-9.5,21.3-21.3V149.3
				C480,137.5,470.4,128,458.7,128z"/>
			<path class="st0" d="M330.7,42.7C330.7,19.1,311.5,0,288,0H74.7C51.1,0,32,19.1,32,42.7V64h298.7V42.7z"/>
			<path class="st0" d="M32,469.3c0,23.5,19.1,42.7,42.7,42.7H288c23.5,0,42.7-19.1,42.7-42.7V384H32V469.3z M181.3,405.3
				c11.8,0,21.3,9.6,21.3,21.3s-9.6,21.3-21.3,21.3s-21.3-9.6-21.3-21.3S169.6,405.3,181.3,405.3z"/>
			<path class="st0" d="M112.6,106.7H32v234.7h123.2c-6.3-7-11.1-15.1-13.8-24.1c-26.2-8-45.4-32.4-45.4-61.2V149.3
				C96,132.9,102.4,118,112.6,106.7z"/>
		</g>
	</g>
</g>
</svg>
