<?xml version="1.0" encoding="utf-8"?>
<!-- Generator: Adobe Illustrator 24.1.2, SVG Export Plug-In . SVG Version: 6.00 Build 0)  -->
<svg version="1.1" id="Capa_1" xmlns="http://www.w3.org/2000/svg" xmlns:xlink="http://www.w3.org/1999/xlink" x="0px" y="0px"
	 viewBox="0 0 512 512" style="enable-background:new 0 0 512 512;" xml:space="preserve">
<style type="text/css">
	.st0{fill:#006367;}
</style>
<g>
	<g>
		<path class="st0" d="M498,249.9c12.7-12.4,17.2-30.6,11.7-47.5s-19.9-29-38.3-31.7L351.5,158c-1.3-0.2-2.3-0.9-2.2-0.6L296.5,25.8
			c-7.6-15.3-22.3-25-41.4-25.7c-17.2,0.7-32,10.4-40.2,27.2l-51.5,128.6c-0.5,1.1-1.6,1.9-2,1.9l-121.6,13
			c-17.6,2.6-32,14.7-37.5,31.6s-1,35.2,11.6,47.5l88.4,87.2c0.9,0.9,1.3,2.1,1.1,3.3l-20,117.2c-3,17.5,4.1,34.9,18.5,45.4
			c8.1,5.9,17.7,8.9,27.2,8.9c7.4,0,14.8-1.8,21.7-5.4l105.4-55.3l105.1,55.3c15.7,8.3,34.5,6.9,48.9-3.5
			c14.4-10.5,21.5-27.9,18.5-45.4l-20.1-117.1c-0.2-1.2,0.2-2.5,1.2-3.4L498,249.9z"/>
	</g>
</g>
</svg>
