<?xml version="1.0" encoding="utf-8"?>
<!-- Generator: Adobe Illustrator 24.1.2, SVG Export Plug-In . SVG Version: 6.00 Build 0)  -->
<svg version="1.1" id="Capa_1" xmlns="http://www.w3.org/2000/svg" xmlns:xlink="http://www.w3.org/1999/xlink" x="0px" y="0px"
	 viewBox="0 0 512 512" style="enable-background:new 0 0 512 512;" xml:space="preserve">
<style type="text/css">
	.st0{fill:#FFFFFF;}
</style>
<g>
	<g>
		<g>
			<path class="st0" d="M256,0C114.8,0,0,114.9,0,256c0,64.8,24.4,123.9,64.3,169.1l112.5-55c6.7-3.7,14.1-15.5,15.1-24.6
				c-26.8-23.9-42.5-59.1-42.5-95.9V164c-0.8-8.4-2.2-41,21.1-67.7C189.2,74.9,218,64,256,64s66.8,10.9,85.5,32.3
				c23.3,26.6,21.9,59.3,21.1,67.7v85.7c0,36.8-15.8,72-42.5,95.9c1,9,8.4,20.9,15.9,25L451,421.5c38-44.7,61-102.4,61-165.5
				C512,114.9,397.2,0,256,0z"/>
			<path class="st0" d="M277.3,343.5v-18.9l8.8-6.4c21.7-16.7,33.8-42,33.8-68.5l0.2-89.7c0,0,2.2-21-11-35.9
				c-10.3-11.6-28.2-17.5-53.2-17.5s-42.9,5.9-53.2,17.5c-13.2,14.8-11,35.9-11,36.1l0.2,2.6v86.9c0,26.6,12.1,51.8,32.4,67.5
				l8.8,6.4l1.5,20c0,24.9-16.5,52.6-38.3,64.5l-99.1,48.4C140.9,491.1,196,512,256,512c61.6,0,118.3-21.9,162.5-58.3l-101.3-44.9
				C293.8,396.1,277.3,368.4,277.3,343.5z"/>
		</g>
	</g>
</g>
</svg>
