<?xml version="1.0" encoding="utf-8"?>
<!-- Generator: Adobe Illustrator 24.1.2, SVG Export Plug-In . SVG Version: 6.00 Build 0)  -->
<svg version="1.1" id="Capa_1" xmlns="http://www.w3.org/2000/svg" xmlns:xlink="http://www.w3.org/1999/xlink" x="0px" y="0px"
	 viewBox="0 0 512 512" style="enable-background:new 0 0 512 512;" xml:space="preserve">
<style type="text/css">
	.st0{fill:#006367;}
</style>
<g>
	<g>
		<g>
			<path class="st0" d="M180.6,289.3h-16.1c-42.3,0-76.1,29.2-80.8,69.7v76.4c22.6,20.7,48.8,37.4,77.7,48.9l49.7-149.2L180.6,289.3
				z"/>
			<path class="st0" d="M512,246.7c0-107.4-66.6-199.4-160.5-237.3C372,30,386,57.3,389.6,87.4c6.8,56.7-12.1,127.1-53.9,159.3h11.8
				c63.9,0,117,46.8,123.4,109c0.1,0.7,0.1,1.5,0.1,2.2v27.3C496.8,345.2,512,297.7,512,246.7z"/>
			<path class="st0" d="M347.5,289.3h-16.1l-30.5,45.8l49.7,149.2c28.9-11.5,55.1-28.2,77.7-48.9V359
				C423.6,318.6,389.8,289.3,347.5,289.3z"/>
			<path class="st0" d="M341.2,69.9c-12.3-30.7-40.7-53.6-74.5-57.3c-3.5-0.4-6.8-0.3-10.4-0.6c-22.1,0-42.5,7.9-59,21.8
				c18.9,0.8,42,7.2,69.7,23.9C310.1,83.6,331.9,76.6,341.2,69.9z"/>
			<path class="st0" d="M250,353.3l-47.9,143.6c17.4,3.7,35.3,5.8,53.8,5.8c18.5,0,36.4-2,53.8-5.8L262,353.3H250z"/>
			<path class="st0" d="M176.7,246.7c-40.1-31.7-55.3-99.1-55.3-142.7c0-35.6,13.8-69.1,38.8-94.5C66.4,47.5,0,139.4,0,246.7
				c0,51,15.2,98.5,41,138.5v-27.3c0-0.7,0-1.5,0.1-2.2c6.4-62.1,59.5-109,123.4-109L176.7,246.7L176.7,246.7z"/>
			<path class="st0" d="M213.8,219.3c12.5,4.6,20.8,16.8,20.8,30.3v5.1c0,8.7-3.6,17.6-9.7,24.3l21.1,31.6h19.8L287,279
				c-6.1-6.7-9.7-15.6-9.7-24.3v-5.2c0-13.6,8.4-25.5,21.3-30.4C328.2,208,347,158,348.1,113.7c-2.4,0.9-4.8,1.8-7.5,2.4
				c-6.7,1.7-13.7,2.5-21,2.5c-22.6,0-47.6-8.2-74.7-24.5c-54-32.5-75-12.7-79.3-7.5c-1.1,5.6-1.7,11.4-1.7,17.3
				C164,150.8,184,208.3,213.8,219.3z"/>
		</g>
	</g>
</g>
</svg>
