<?xml version="1.0" encoding="utf-8"?>
<!-- Generator: Adobe Illustrator 24.1.2, SVG Export Plug-In . SVG Version: 6.00 Build 0)  -->
<svg version="1.1" id="Capa_1" xmlns="http://www.w3.org/2000/svg" xmlns:xlink="http://www.w3.org/1999/xlink" x="0px" y="0px"
	 viewBox="0 0 509.8 509.8" style="enable-background:new 0 0 509.8 509.8;" xml:space="preserve">
<style type="text/css">
	.st0{fill:#FFFFFF;}
</style>
<g>
	<g>
		<g>
			<path class="st0" d="M254.9,382.9c-16.6,0-33.4,2.1-49.9,5.7c14.1,62.7,35.8,101,49.9,101c14.1,0,35.8-38.3,49.9-101
				C288.3,385,271.5,382.9,254.9,382.9z"/>
			<path class="st0" d="M254.9,169.6c-19.4,0-38.8-2.1-57.6-5.8c-3.1,21.5-5.2,44.9-6,69.8h127.2c-0.8-24.9-2.9-48.3-6-69.8
				C293.7,167.5,274.3,169.6,254.9,169.6z"/>
			<path class="st0" d="M254.9,126.9c16.8,0,33.6-1.9,50-5.1c-14.1-63-35.9-101.5-50-101.5s-35.9,38.5-50,101.6
				C221.3,125,238.2,126.9,254.9,126.9z"/>
			<path class="st0" d="M409.7,70.1l9.4-11.3C385.9,31,345.6,11.5,301.4,3.4c19.9,24.2,34.5,63.2,44.4,107
				C372.3,100.3,395,86.4,409.7,70.1z"/>
			<path class="st0" d="M353.5,358.1c33.1,12.1,63.3,29.8,86.7,52l10,10c33.5-39.5,55.1-89.2,59.6-143.8H361.2
				C360.3,302.6,357.7,330.6,353.5,358.1z"/>
			<path class="st0" d="M197.3,346.5c19-4,38.4-6.3,57.6-6.3c19.2,0,38.6,2.3,57.6,6.3c3.1-21.6,5.2-45.2,6-70.3H191.3
				C192.1,301.4,194.2,324.9,197.3,346.5z"/>
			<path class="st0" d="M148.6,276.3H0c4.5,54.6,26.2,104.3,59.6,143.8l9.5-9.5c23.7-22.4,54-40.2,87.1-52.4
				C152.1,330.7,149.5,302.7,148.6,276.3z"/>
			<path class="st0" d="M98.9,441.1l-9.1,9.1c33.4,28.3,74,48,118.7,56.3c-19.6-24-34.2-62.4-44.1-105.6
				C139.3,410.9,116.4,424.5,98.9,441.1z"/>
			<path class="st0" d="M164.1,110.4c9.9-43.8,24.6-82.9,44.4-107.1c-44,8.1-84.1,27.3-117.1,54.8l10,13.3
				C115.3,87.1,137.8,100.6,164.1,110.4z"/>
			<path class="st0" d="M345.5,400.8c-9.9,43.2-24.4,81.7-44.1,105.6c44.7-8.2,85.3-28,118.7-56.3l-9.6-9.6
				C393.2,424.3,370.5,410.8,345.5,400.8z"/>
			<path class="st0" d="M361.2,233.6h148.6c-4.6-55-26.5-105-60.4-144.6l-7.5,9c-20.7,23.2-52.3,42-88.3,54.6
				C357.8,179.8,360.3,207.5,361.2,233.6z"/>
			<path class="st0" d="M156.2,152.6c-36-12.5-67.4-31.2-87.9-54.1l-7.5-10C26.7,128.2,4.6,178.4,0,233.6h148.6
				C149.5,207.5,152,179.8,156.2,152.6z"/>
		</g>
	</g>
</g>
</svg>
